<svg width="26" height="25" fill="none" xmlns="http://www.w3.org/2000/svg"><path d="M17.522 9.783a.555.555 0 00.565-.544V2.717C18.087 1.22 16.82 0 15.261 0H2.826C1.267 0 0 1.22 0 2.717v19.566C0 23.78 1.267 25 2.826 25h12.435c1.559 0 2.826-1.22 2.826-2.717V15.76c0-.3-.253-.544-.565-.544a.555.555 0 00-.566.544v6.522c0 .898-.76 1.63-1.695 1.63H2.826c-.935 0-1.696-.732-1.696-1.63V2.717c0-.899.761-1.63 1.696-1.63h12.435c.935 0 1.695.731 1.695 1.63V9.24c0 .3.254.544.566.544z" fill="#fff"/><path d="M25.435 11.957H7.348a.555.555 0 00-.565.543c0 .3.253.543.565.543h18.087A.555.555 0 0026 12.5c0-.3-.253-.543-.565-.543z" fill="#fff"/><path d="M25.834 12.117l-3.392-3.26a.582.582 0 00-.799 0 .53.53 0 000 .768l2.991 2.876-2.99 2.876a.53.53 0 000 .769.58.58 0 00.799 0l3.39-3.26a.53.53 0 000-.769z" fill="#fff"/></svg>