<svg width="44" height="44" fill="none" xmlns="http://www.w3.org/2000/svg"><g clip-path="url(#clip0)" fill="#fff"><path d="M41.926 19.343c-.229-1.833-.995-3.292-1.316-3.84.233-3.812-.523-6.683-2.248-8.535A6.348 6.348 0 0034.65 5c-1.216-2.571-3.284-3.068-4.54-2.948C27.755-.139 25.58-.19 24.145.167A6.297 6.297 0 0022 1.18 6.29 6.29 0 0019.854.167c-1.434-.359-3.61-.306-5.964 1.885-1.258-.12-3.325.377-4.54 2.948a6.345 6.345 0 00-3.713 1.968C3.912 8.82 3.157 11.69 3.39 15.504c-.322.546-1.087 2.006-1.317 3.839-.259 2.076.137 5.005 3.384 7.38-.377 2.222-.02 6.045 3.527 7.925-.147.808-.245 2.21.476 3.408.567.942 1.504 1.562 2.788 1.845.649 1 2.883 4.1 5.672 4.1l.053-.001c1.495-.022 2.846-.905 4.027-2.63 1.18 1.724 2.532 2.608 4.026 2.63 2.809.04 5.072-3.092 5.725-4.099 1.284-.283 2.221-.903 2.788-1.845.721-1.198.623-2.6.476-3.408 3.548-1.88 3.904-5.703 3.528-7.924 3.247-2.376 3.643-5.305 3.383-7.381zm-4.655 6.41a.763.763 0 00-.317.819c.052.207 1.218 5.093-3.124 6.954a.762.762 0 00-.423.942c.005.017.52 1.65-.175 2.802-.376.625-1.076 1.027-2.078 1.194a.763.763 0 00-.533.367c-.597 1.018-2.569 3.644-4.542 3.644h-.034c-1.187-.018-2.318-.998-3.362-2.911a.81.81 0 00-.698-.397.762.762 0 00-.67.397c-1.043 1.913-2.175 2.893-3.362 2.91-1.975.033-3.976-2.619-4.575-3.642a.764.764 0 00-.534-.368c-.999-.167-1.697-.567-2.074-1.188-.703-1.159-.183-2.794-.178-2.808a.763.763 0 00-.423-.942c-4.32-1.851-3.174-6.748-3.124-6.954a.763.763 0 00-.317-.82c-5.69-3.793-2.082-9.398-1.926-9.633a.764.764 0 00.126-.478c-.249-3.477.358-6.037 1.803-7.61C8.121 6.52 9.803 6.481 9.87 6.48c.312 0 .592-.19.708-.48.854-2.133 2.225-2.438 2.938-2.438.23 0 .392.032.445.045a.763.763 0 00.724-.201c1.552-1.552 3.148-2.148 4.742-1.773a4.712 4.712 0 012.02 1.06.763.763 0 00.539.224h.03c.201 0 .395-.08.538-.223.008-.008.775-.75 1.962-1.047 1.614-.403 3.229.188 4.8 1.759.185.186.46.26.717.202.228-.052 2.262-.428 3.39 2.393a.77.77 0 00.703.479c.071.001 1.753.04 3.143 1.551 1.445 1.573 2.051 4.133 1.803 7.61a.765.765 0 00.127.478c.01.015.972 1.477 1.214 3.413.316 2.527-.741 4.62-3.141 6.22z"/><path d="M34.826 5.476a.764.764 0 00-.965-.482c-4.744 1.58-4.798 5.545-4.798 5.713a.76.76 0 00.757.76h.005a.765.765 0 00.763-.755c.002-.124.084-3.048 3.755-4.271a.763.763 0 00.483-.965zm3.446 20.448a.763.763 0 00-1.07-.144c-1.242.947-2.366 1.284-3.338 1.004-1.731-.498-2.603-2.778-2.611-2.802a.762.762 0 00-1.43.53c.045.123 1.14 3.017 3.61 3.735a3.98 3.98 0 001.126.161c1.137 0 2.333-.473 3.568-1.415a.763.763 0 00.145-1.07zm-12.896.636a.762.762 0 10-1.079 1.078c2.477 2.477 1.963 4.87 1.937 4.983a.763.763 0 001.48.365c.034-.133.782-3.306-2.338-6.426zm11.834-7.148a.764.764 0 00-.977-.457c-.154.055-3.791 1.327-5.722-1.244-1.004-1.335-1.435-2.478-1.781-3.397-.426-1.127-.827-2.192-2.16-2.302a.763.763 0 10-.125 1.52c.319.026.439.211.857 1.32.361.956.855 2.265 1.989 3.775 1.329 1.769 3.183 2.213 4.712 2.213 1.48 0 2.655-.417 2.752-.452a.762.762 0 00.454-.976zM21.985 1.391a.763.763 0 00-.762.763v37.774a.763.763 0 001.525 0V2.154a.763.763 0 00-.763-.763z"/><path d="M27.562 7.962a.752.752 0 00-.774-.752.763.763 0 00-.751.774c0 .048.042 4.803-2.336 7.82a.762.762 0 101.197.944c2.71-3.436 2.667-8.569 2.664-8.786zm1.551 23.363c-3.362 0-4.935 4.602-5 4.799a.762.762 0 001.447.482c.351-1.044 1.675-3.755 3.553-3.755a.763.763 0 000-1.526zm.859-29.391a.763.763 0 00-1.067.156l-1.83 2.46a.763.763 0 001.224.91L30.129 3a.763.763 0 00-.157-1.066zM14.357 6.863a3.054 3.054 0 00-3.05 3.051 3.054 3.054 0 003.05 3.051 3.054 3.054 0 003.051-3.05 3.054 3.054 0 00-3.05-3.052zm0 4.577a1.527 1.527 0 01-1.525-1.526 1.527 1.527 0 013.051 0c0 .841-.685 1.526-1.526 1.526zm-5.339 5.339a3.054 3.054 0 00-3.05 3.05 3.054 3.054 0 003.05 3.051 3.054 3.054 0 003.05-3.05 3.054 3.054 0 00-3.05-3.051zm0 4.576a1.527 1.527 0 01-1.526-1.525c0-.842.685-1.526 1.526-1.526s1.525.684 1.525 1.526c0 .84-.684 1.525-1.525 1.525zm7.627 2.288a3.054 3.054 0 00-3.05 3.051 3.054 3.054 0 003.05 3.051 3.054 3.054 0 003.051-3.05 3.054 3.054 0 00-3.05-3.052zm0 4.577a1.527 1.527 0 01-1.525-1.526 1.527 1.527 0 013.051 0c0 .841-.685 1.526-1.526 1.526zm0 3.813a3.054 3.054 0 00-3.05 3.051 3.054 3.054 0 003.05 3.051 3.054 3.054 0 003.051-3.05 3.054 3.054 0 00-3.05-3.052zm0 4.577a1.527 1.527 0 01-1.525-1.526 1.527 1.527 0 013.051 0c0 .841-.685 1.526-1.526 1.526z"/><path d="M14.357 11.44a.763.763 0 00-.762.762v7.628a.763.763 0 001.525 0v-7.628a.763.763 0 00-.763-.762z"/><path d="M16.645 19.067h-5.339a.763.763 0 000 1.525h5.34a.763.763 0 000-1.525z"/><path d="M16.645 19.067a.763.763 0 00-.762.763v4.576a.763.763 0 001.525 0V19.83a.763.763 0 00-.763-.763zm0 9.153a.763.763 0 00-.762.762v3.814a.763.763 0 001.525 0v-3.814a.763.763 0 00-.763-.762z"/></g><defs><clipPath id="clip0"><path fill="#fff" d="M0 0h44v44H0z"/></clipPath></defs></svg>